<?xml version="1.0" encoding="UTF-8" standalone="no"?>
<svg
   width="34"
   height="24"
   viewBox="0 0 34 24"
   xmlns="http://www.w3.org/2000/svg"
>
   <path
      fill="#000"
      d="m 8.0019531,1.2460938 c -0.5391654,0 -1.0894269,0.176713 -1.5234375,0.5625 C 6.0445051,2.1943808 5.7617188,2.802163 5.7617188,3.4863281 v 5.1914063 c -0.6007884,0.5586347 -1.2194609,1.167768 -1.7246094,1.7109376 -0.2886153,0.310339 -0.5432387,0.594204 -0.7441406,0.835937 -0.18772,0.225873 -0.3118042,0.373558 -0.4316407,0.601563 -0.4994153,0.775558 -0.7135252,1.622876 -0.5546875,2.455078 0.1613107,0.845159 0.6205258,1.632809 1.2753906,2.566406 0.4852628,0.691759 1.0429225,1.410434 1.4902344,1.96875 0.223656,0.279159 0.4197284,0.516867 0.5644532,0.691406 0.1447248,0.174541 0.2058215,0.249118 0.2675781,0.31836 0.2529338,0.286942 0.3007154,0.427482 0.3378906,0.724609 0.037296,0.298094 0.013672,0.766472 0.013672,1.439453 0,0.414214 0.3357868,0.75 0.75,0.75 0.4142132,0 0.75,-0.335786 0.75,-0.75 0,-0.622015 0.039563,-1.105844 -0.025391,-1.625 C 7.6655148,19.84608 7.4432979,19.303251 7.0253906,18.830078 l -0.00195,-0.002 c 0.028751,0.03234 -0.092588,-0.10865 -0.232425,-0.277297 C 6.6511785,18.382135 6.4597806,18.148544 6.2421875,17.876953 5.8070012,17.333772 5.2652822,16.634568 4.8105469,15.986328 4.2014142,15.117929 3.8697357,14.473839 3.7792969,14 3.688858,13.526161 3.7582552,13.179942 4.1308594,12.613281 c 0.017263,-0.0257 0.032918,-0.05245 0.046875,-0.08008 -0.0318,0.06443 0.094809,-0.139375 0.2695312,-0.349609 0.1747223,-0.210234 0.4131165,-0.478402 0.6875,-0.773438 0.1829224,-0.19669 0.419253,-0.409231 0.6269532,-0.621094 v 2.726563 c 0,0.414214 0.3357868,0.75 0.75,0.75 0.4142131,0 0.75,-0.335786 0.75,-0.75 V 3.4863281 c 0,-0.3091657 0.090105,-0.4457621 0.2148437,-0.5566406 0.1247383,-0.1108785 0.3195576,-0.1835937 0.5253906,-0.1835937 0.205833,0 0.4006523,0.072715 0.5253907,0.1835937 C 8.652082,3.040566 8.7421875,3.1771624 8.7421875,3.4863281 V 8.6875 11.011719 c 0,0.414213 0.3357868,0.75 0.75,0.75 0.4142134,0 0.7499995,-0.335787 0.7500005,-0.75 V 9.0761719 c 0.204397,-0.1939797 0.428589,-0.3187037 0.697265,-0.2421875 0.322861,0.091948 0.669802,0.3687667 0.810547,1.0078125 6.45e-4,0.00326 0.0013,0.00652 0.002,0.00977 6.22e-4,0.00267 0.0014,0.00506 0.002,0.00781 6.32e-4,0.00335 -4.84e-4,0.00621 0,0.00977 v 0.00195 c 0.0052,0.045327 0.0096,0.091094 0.0098,0.1367181 v 1 c 0,0.414214 0.335786,0.75 0.75,0.75 0.414213,0 0.75,-0.335786 0.75,-0.75 v -1.001953 c 3e-6,-0.0013 3e-6,-0.0026 0,-0.0039 -5e-5,-0.013033 -0.0017,-0.026034 -0.002,-0.039062 0.04208,-0.070351 0.07842,-0.1371626 0.152343,-0.1660156 0.102031,-0.039823 0.268887,-0.052156 0.458985,0.00586 0.376892,0.1150206 0.78654,0.4647276 0.878906,1.1386716 v 1.066406 c 0,0.414214 0.335787,0.75 0.75,0.75 0.414214,0 0.75,-0.335786 0.75,-0.75 v -0.980468 c 0.02221,-0.06909 0.02722,-0.09564 0.09766,-0.115235 0.08851,-0.02462 0.305438,-0.02036 0.539063,0.07617 0.467248,0.193068 0.879202,0.655724 0.863281,1.142578 -1.22e-4,0.0078 -1.22e-4,0.01563 0,0.02344 v 3.177734 c -0.0029,1.643198 -0.237963,2.615192 -1.099609,3.478516 -0.01569,0.01561 -0.03067,0.0319 -0.04492,0.04883 -0.53692,0.641131 -0.798672,1.241668 -0.884766,1.783203 -0.08609,0.541536 -0.02691,0.95901 -0.03711,1.339844 -0.01094,0.413525 0.315012,0.757825 0.728515,0.769531 0.415022,0.01203 0.760847,-0.315409 0.771485,-0.730469 0.0138,-0.515164 -0.02733,-0.862067 0.01758,-1.144531 0.04491,-0.282463 0.143609,-0.563821 0.554687,-1.054687 1.155178,-1.187785 1.491038,-2.702984 1.494141,-4.488282 v -0.002 -3.177734 l -0.002,0.02539 C 19.291037,10.923586 18.406437,9.9922435 17.460938,9.6015625 16.988189,9.406222 16.467845,9.3220089 15.947266,9.4667969 15.865658,9.4894944 15.842559,9.616838 15.763672,9.6542969 15.397109,9.0437453 14.915062,8.5510782 14.3125,8.3671875 13.843974,8.2242022 13.336186,8.2173391 12.867188,8.4003906 12.805517,8.4244608 12.785938,8.5154356 12.726562,8.546875 12.369657,7.9968227 11.917229,7.5542306 11.349609,7.3925781 10.988895,7.2898499 10.60945,7.3389175 10.242188,7.4199219 V 3.4863281 C 10.242187,2.802163 9.9594012,2.1943808 9.5253906,1.8085938 9.0913801,1.4228068 8.5411187,1.2460938 8.0019531,1.2460938 Z M 17.509766,1.25 c -0.198936,-0.00257 -0.390741,0.074014 -0.533204,0.2128906 -0.136864,0.1333426 -0.8071,0.6341049 -1.40039,1.1367188 -0.296646,0.2513069 0.0092,0.00713 -0.828125,0.796875 C 14.454462,3.6733854 14.286653,4.1067641 14.25,4.5 c -0.03716,0.3986522 0.498047,1.1035156 0.498047,1.1035156 0.82101,0.7838926 0.531479,0.5455681 0.828125,0.796875 0.59329,0.5026139 1.263526,1.0033762 1.40039,1.1367188 0.296641,0.2890764 0.771457,0.2829555 1.060547,-0.013672 0.289077,-0.2966405 0.282955,-0.7714559 -0.01367,-1.0605469 -0.368135,-0.3586563 -0.948059,-0.757647 -1.478516,-1.2070312 -0.0024,-0.00206 -0.0034,-0.0038 -0.0059,-0.00586 H 21 c 0.414213,0 0.75,-0.3357871 0.75,-0.75 0,-0.4142132 -0.335786,-0.75 -0.75,-0.75 h -4.460938 c 0.0024,-0.00206 0.0034,-0.0038 0.0059,-0.00586 0.530457,-0.4493842 1.110383,-0.8483748 1.478516,-1.2070312 0.296615,-0.2891015 0.302758,-0.7639169 0.01367,-1.0605469 C 17.898322,1.3341086 17.708633,1.2526132 17.509766,1.25 Z m 11.183593,0 c -0.198867,0.00261 -0.388556,0.084109 -0.527343,0.2265625 -0.289087,0.29663 -0.282944,0.7714454 0.01367,1.0605469 0.368132,0.3586564 0.948058,0.757647 1.478515,1.2070312 0.0025,0.00206 0.0035,0.0038 0.0059,0.00586 h -4.460937 c -0.414214,0 -0.75,0.3357868 -0.75,0.75 0,0.4142129 0.335787,0.75 0.75,0.75 h 4.462891 c 0.0032,0 -0.0054,0.0038 -0.0078,0.00586 -0.530457,0.4493842 -1.110381,0.8483749 -1.478515,1.2070312 -0.296627,0.289091 -0.302749,0.7639064 -0.01367,1.0605469 0.28909,0.2966274 0.763906,0.3027483 1.060546,0.013672 0.136865,-0.1333426 0.807101,-0.6341049 1.400391,-1.1367188 0.296646,-0.2513069 0.0071,-0.012982 0.828125,-0.796875 0,0 0.535207,-0.7048634 0.498047,-1.1035156 C 31.916472,4.1067641 31.748663,3.6733854 31.455078,3.3964844 30.617754,2.6067402 30.923599,2.8509163 30.626953,2.5996094 30.033663,2.0969955 29.363427,1.5962332 29.226562,1.4628906 29.0841,1.3240142 28.892295,1.24743 28.693359,1.25 Z" />
</svg>