<?xml version="1.0" encoding="UTF-8" standalone="no"?>
<svg
   width="30"
   height="24"
   viewBox="0 0 30 24"
   xmlns="http://www.w3.org/2000/svg"
>
   <path
      fill="#000"
      d="m 8.0170873,1.2475695 c -0.539165,0 -1.089428,0.176713 -1.523438,0.5625 -0.43401,0.385786 -0.716797,0.99357 -0.716797,1.677734 v 5.191406 c -0.600787,0.558635 -1.219461,1.167768 -1.724609,1.7109385 -0.288615,0.310338 -0.543239,0.594204 -0.744141,0.835937 -0.1877195,0.225873 -0.3118039,0.373558 -0.4316403,0.601563 -0.4994148,0.775557 -0.713525,1.622877 -0.5546875,2.455078 0.1613106,0.845158 0.6205265,1.63281 1.2753908,2.566406 0.485262,0.691758 1.042923,1.410435 1.490234,1.96875 0.223656,0.279159 0.419729,0.516868 0.564453,0.691406 0.144725,0.174541 0.205822,0.249118 0.267578,0.31836 0.252934,0.286941 0.300716,0.427482 0.337891,0.724609 0.0373,0.298094 0.01367,0.766473 0.01367,1.439453 0,0.414214 0.335787,0.75 0.75,0.75 0.414213,0 0.75,-0.335786 0.75,-0.75 0,-0.622014 0.03956,-1.105844 -0.02539,-1.625 -0.06495,-0.519153 -0.287171,-1.061983 -0.705078,-1.535156 l -0.0019,-0.002 c 0.02875,0.03239 -0.09259,-0.10865 -0.232425,-0.277297 -0.139837,-0.168646 -0.331235,-0.402237 -0.548828,-0.673828 -0.435186,-0.54318 -0.976906,-1.242386 -1.43164,-1.890625 -0.609133,-0.868398 -0.940812,-1.51249 -1.03125,-1.986328 -0.09044,-0.473839 -0.02104,-0.820058 0.351562,-1.386719 0.01726,-0.0257 0.03292,-0.05245 0.04687,-0.08008 -0.0318,0.06443 0.09481,-0.139376 0.269531,-0.349609 0.174722,-0.210234 0.413117,-0.478402 0.6875,-0.773438 0.182922,-0.19669 0.419253,-0.409231 0.626953,-0.621094 v 2.726563 c 0,0.414213 0.335788,0.75 0.75,0.75 0.414213,0 0.75,-0.335787 0.75,-0.75 V 3.4878035 c 0,-0.309166 0.09011,-0.445763 0.214844,-0.556641 0.124694,-0.110879 0.319514,-0.183593 0.525347,-0.183593 0.205833,0 0.400652,0.07271 0.52539,0.183593 0.124738,0.110878 0.214844,0.247475 0.214844,0.556641 v 5.201172 2.3242195 c 0,0.414212 0.335787,0.75 0.75,0.75 0.414213,0 0.7500007,-0.335788 0.7500017,-0.75 V 9.0776475 c 0.204396,-0.19398 0.428589,-0.318704 0.697265,-0.242188 0.322861,0.09195 0.669802,0.368767 0.810547,1.007813 6.45e-4,0.0033 0.0013,0.0065 0.002,0.0098 6.22e-4,0.0027 0.0014,0.0051 0.002,0.0078 6.32e-4,0.0034 -4.84e-4,0.0062 0,0.0098 v 0.002 c 0.0052,0.04533 0.0096,0.09109 0.0098,0.1367185 v 1 c 0,0.414214 0.335786,0.75 0.75,0.75 0.414212,0 0.75,-0.335786 0.75,-0.75 v -1.001953 c 3e-6,-0.0013 3e-6,-0.0026 0,-0.0039 -5e-5,-0.013031 -0.0017,-0.026031 -0.002,-0.039061 0.04208,-0.07035 0.07842,-0.137163 0.152343,-0.166016 0.102031,-0.03982 0.268887,-0.0522 0.458985,0.0059 0.376891,0.115021 0.78654,0.46473 0.878906,1.138673 v 1.066406 c 0,0.414214 0.335788,0.75 0.75,0.75 0.414214,0 0.75,-0.335786 0.75,-0.75 v -0.980468 c 0.02221,-0.06909 0.02722,-0.09564 0.09766,-0.115235 0.08851,-0.02462 0.305438,-0.02036 0.539063,0.07617 0.467247,0.193068 0.879202,0.655725 0.863281,1.142578 -1.22e-4,0.0078 -1.22e-4,0.01563 0,0.02344 v 3.177734 c -0.0029,1.643196 -0.237964,2.615193 -1.099609,3.478515 -0.01569,0.01561 -0.03067,0.0319 -0.04492,0.04883 -0.53692,0.64113 -0.798672,1.24167 -0.884766,1.783203 -0.08609,0.541535 -0.02691,0.95901 -0.03711,1.339844 -0.01094,0.413524 0.315013,0.757825 0.728515,0.769531 0.415022,0.01203 0.760847,-0.315408 0.771485,-0.730469 0.0138,-0.515163 -0.02733,-0.862067 0.01758,-1.144531 0.04491,-0.282463 0.14361,-0.563822 0.554687,-1.054687 1.155177,-1.187783 1.491038,-2.702985 1.494141,-4.488281 v -0.002 -3.177734 l -0.002,0.02539 c 0.04104,-1.2561 -0.843564,-2.187445 -1.789062,-2.578126 -0.472749,-0.19534 -0.993094,-0.279553 -1.513672,-0.134765 -0.08161,0.0227 -0.104707,0.150041 -0.183594,0.1875 -0.366563,-0.610552 -0.848611,-1.10322 -1.451172,-1.28711 -0.468526,-0.142985 -0.976315,-0.149845 -1.445312,0.0332 -0.06167,0.02407 -0.08125,0.115045 -0.140626,0.146484 C 12.384834,7.998401 11.932405,7.555809 11.364785,7.394156 11.004072,7.291428 10.624625,7.340496 10.257364,7.421496 V 3.487902 c -1e-6,-0.684164 -0.2827887,-1.291948 -0.7167987,-1.677734 -0.43401,-0.385787 -0.984272,-0.5625 -1.523437,-0.5625 z m 16.8515637,1.214843 c -0.405918,0.02818 -1.025391,0.5 -1.025391,0.5 -0.783891,0.82101 -0.545568,0.53148 -0.796875,0.828125 -0.502613,0.59329 -1.003377,1.263527 -1.136719,1.400391 -0.289076,0.296641 -0.282954,0.771457 0.01367,1.060547 0.296641,0.289077 0.771456,0.282953 1.060547,-0.01367 0.358657,-0.368135 0.757647,-0.948059 1.207031,-1.478516 0.0021,-0.0024 0.0038,-0.0034 0.0059,-0.0059 v 4.460938 c 0,0.414212 0.335787,0.75 0.75,0.75 0.414212,0 0.75,-0.335787 0.75,-0.75 v -4.460899 c 0.0021,0.0024 0.0038,0.0034 0.0059,0.0059 0.449385,0.530457 0.848375,1.110383 1.207031,1.478516 0.289101,0.296615 0.763917,0.30276 1.060547,0.01367 0.142454,-0.138787 0.22395,-0.328477 0.226563,-0.527344 0.0026,-0.198936 -0.07401,-0.39074 -0.212891,-0.533203 -0.133342,-0.136864 -0.634106,-0.807101 -1.136719,-1.400391 -0.251306,-0.296645 -0.0071,0.0092 -0.796875,-0.828125 -0.2769,-0.293584 -0.71028,-0.461394 -1.103515,-0.498046 -0.02492,-0.0023 -0.05106,-0.0038 -0.07813,-0.002 z m 0.07813,10.2050785 c -0.414213,0 -0.75,0.335788 -0.75,0.75 v 4.462891 c 0,0.0032 -0.0038,-0.0054 -0.0059,-0.0078 -0.449384,-0.530457 -0.848374,-1.110382 -1.207031,-1.478516 -0.289091,-0.296627 -0.763906,-0.302751 -1.060547,-0.01367 -0.296627,0.28909 -0.302749,0.763907 -0.01367,1.060547 0.133342,0.136865 0.634106,0.807101 1.136719,1.400391 0.251307,0.296645 0.01298,0.0071 0.796875,0.828125 0,0 0.704864,0.535206 1.103516,0.498046 0.393235,-0.03665 0.826615,-0.204462 1.103515,-0.498046 0.789743,-0.837324 0.545569,-0.53148 0.796875,-0.828125 0.502613,-0.59329 1.003377,-1.263526 1.136719,-1.400391 0.138877,-0.142462 0.215461,-0.334267 0.212891,-0.533203 -0.0026,-0.198867 -0.08411,-0.388557 -0.226563,-0.527344 -0.29663,-0.289087 -0.771446,-0.282942 -1.060547,0.01367 -0.358656,0.368132 -0.757646,0.948059 -1.207031,1.478516 -0.0021,0.0025 -0.0038,0.0035 -0.0059,0.0059 v -4.460938 c 0,-0.414213 -0.335788,-0.75 -0.75,-0.75 z" />
</svg>